<?xml version="1.0" standalone="no"?>
<!DOCTYPE svg PUBLIC "-//W3C//DTD SVG 20010904//EN"
 "http://www.w3.org/TR/2001/REC-SVG-20010904/DTD/svg10.dtd">
<svg version="1.0" xmlns="http://www.w3.org/2000/svg"
 width="192.000000pt" height="192.000000pt" viewBox="0 0 192.000000 192.000000"
 preserveAspectRatio="xMidYMid meet">
<metadata>
Created by potrace 1.14, written by Peter Selinger 2001-2017
</metadata>
<g transform="translate(0.000000,192.000000) scale(0.100000,-0.100000)"
fill="#000000" stroke="none">
<path d="M904 1765 c16 -42 -22 -120 -99 -206 -41 -45 -79 -97 -84 -115 -17
-61 8 -133 67 -196 32 -34 42 -35 42 -4 0 38 18 76 55 118 20 22 35 49 35 63
0 20 5 25 24 25 48 0 95 95 82 164 -4 21 -28 62 -57 98 -51 64 -78 86 -65 53z
m66 -150 c10 -27 -4 -83 -26 -101 -15 -12 -71 -7 -80 7 -3 5 8 25 24 44 17 18
33 43 37 54 9 29 33 26 45 -4z m-116 -131 c12 -33 5 -62 -26 -103 -30 -38 -34
-40 -45 -24 -24 31 -13 82 25 126 19 21 38 22 46 1z"/>
<path d="M1070 1570 c0 -47 -43 -121 -110 -190 -89 -89 -107 -146 -75 -223 16
-39 71 -107 86 -107 5 0 9 9 9 21 0 38 31 87 95 151 84 85 115 132 115 177 0
58 -15 68 -29 20 -9 -29 -37 -66 -96 -128 -47 -47 -91 -95 -98 -105 -20 -27
-37 -11 -37 33 0 39 17 67 84 136 56 59 76 104 76 174 0 33 -4 63 -10 66 -6 4
-10 -7 -10 -25z"/>
<path d="M683 997 c-3 -4 0 -13 5 -20 5 -7 48 -60 96 -119 l87 -108 107 0 107
1 88 120 c49 67 87 123 84 125 -8 8 -569 9 -574 1z"/>
<path d="M876 691 c-8 -12 99 -490 112 -503 8 -8 15 -8 21 -2 11 10 82 495 75
506 -7 11 -202 10 -208 -1z"/>
</g>
</svg>
